<?xml version="1.0" encoding="UTF-8" standalone="no" ?>
<!DOCTYPE svg PUBLIC "-//W3C//DTD SVG 1.1//EN" "http://www.w3.org/Graphics/SVG/1.1/DTD/svg11.dtd">
<svg xmlns="http://www.w3.org/2000/svg" xmlns:xlink="http://www.w3.org/1999/xlink" version="1.1" width="350" height="50" viewBox="0 0 2000 400" xml:space="preserve">
<desc>Created with Fabric.js 5.2.4</desc>
<defs>
</defs>
<g transform="matrix(1 0 0 1 1000 200)" id="d5654b67-a149-44d2-a3ba-53a132f511fb"  >
<rect style="stroke: none; stroke-width: 1; stroke-dasharray: none; stroke-linecap: butt; stroke-dashoffset: 0; stroke-linejoin: miter; stroke-miterlimit: 4; fill: rgb(255,255,255); fill-rule: nonzero; opacity: 1; visibility: hidden;" vector-effect="non-scaling-stroke"  x="-1000" y="-200" rx="0" ry="0" width="2000" height="400" />
</g>
<g transform="matrix(Infinity NaN NaN Infinity 0 0)" id="03f5bc82-4943-4ab9-960e-8df8bcc6637e"  >
</g>
<g transform="matrix(3.33 0 0 3.33 1000 200)"  >
<g style="" vector-effect="non-scaling-stroke"   >
		<g transform="matrix(0.13 0 0 -0.13 -173.38 -0.7)"  >
<path style="stroke: none; stroke-width: 1; stroke-dasharray: none; stroke-linecap: butt; stroke-dashoffset: 0; stroke-linejoin: miter; stroke-miterlimit: 4; fill: rgb(0,0,0); fill-rule: nonzero; opacity: 1;" vector-effect="non-scaling-stroke"  transform=" translate(-940.8, -2149.01)" d="M 792 2433 C 727 2429 711 2412 761 2400 C 804 2390 810 2361 810 2137 C 810 1921 805 1890 770 1890 C 759 1890 750 1883 750 1875 C 750 1863 767 1860 840 1860 C 913 1860 930 1863 930 1875 C 930 1883 921 1890 910 1890 C 879 1890 870 1922 870 2033 C 870 2132 871 2139 896 2164 C 916 2183 933 2190 961 2190 C 1022 2190 1031 2167 1028 2019 C 1025 1900 1024 1896 1002 1890 C 950 1878 979 1865 1063 1862 C 1129 1860 1150 1862 1150 1872 C 1150 1879 1140 1890 1128 1895 C 1106 1904 1105 1912 1100 2040 C 1097 2118 1090 2184 1083 2196 C 1054 2247 972 2251 909 2204 L 875 2179 L 872 2310 C 871 2381 866 2439 862 2438 C 858 2437 827 2435 792 2433 z" stroke-linecap="round" />
</g>
		<g transform="matrix(0.13 0 0 -0.13 169.06 -0.19)"  >
<path style="stroke: none; stroke-width: 1; stroke-dasharray: none; stroke-linecap: butt; stroke-dashoffset: 0; stroke-linejoin: miter; stroke-miterlimit: 4; fill: rgb(0,0,0); fill-rule: nonzero; opacity: 1;" vector-effect="non-scaling-stroke"  transform=" translate(-3509.11, -2145.14)" d="M 3553 2433 C 3506 2430 3490 2425 3490 2415 C 3490 2406 3500 2400 3514 2400 C 3557 2400 3570 2376 3570 2293 C 3570 2225 3568 2219 3553 2225 C 3480 2254 3393 2229 3344 2165 C 3320 2133 3315 2116 3312 2056 C 3309 1997 3313 1977 3332 1940 C 3365 1876 3412 1847 3473 1853 C 3499 1855 3529 1865 3540 1875 C 3559 1892 3561 1892 3573 1877 C 3583 1863 3595 1861 3648 1866 C 3687 1870 3709 1877 3707 1884 C 3705 1890 3695 1897 3684 1899 C 3641 1907 3640 1911 3640 2181 C 3640 2383 3637 2440 3628 2438 C 3621 2437 3587 2435 3553 2433 z M 3545 2185 C 3569 2162 3570 2155 3570 2041 L 3570 1921 L 3540 1905 C 3498 1883 3466 1886 3432 1915 C 3363 1973 3369 2143 3442 2194 C 3475 2217 3517 2214 3545 2185 z" stroke-linecap="round" />
</g>
		<g transform="matrix(0.13 0 0 -0.13 -275.5 -30.44)"  >
<path style="stroke: none; stroke-width: 1; stroke-dasharray: none; stroke-linecap: butt; stroke-dashoffset: 0; stroke-linejoin: miter; stroke-miterlimit: 4; fill: rgb(0,0,0); fill-rule: nonzero; opacity: 1;" vector-effect="non-scaling-stroke"  transform=" translate(-174.87, -2372.05)" d="M 142 2408 C 122 2388 127 2342 151 2330 C 167 2321 177 2322 196 2335 C 237 2362 223 2420 175 2420 C 163 2420 149 2415 142 2408 z" stroke-linecap="round" />
</g>
		<g transform="matrix(0.13 0 0 -0.13 -230.82 2.51)"  >
<path style="stroke: none; stroke-width: 1; stroke-dasharray: none; stroke-linecap: butt; stroke-dashoffset: 0; stroke-linejoin: miter; stroke-miterlimit: 4; fill: rgb(0,0,0); fill-rule: nonzero; opacity: 1;" vector-effect="non-scaling-stroke"  transform=" translate(-510, -2124.93)" d="M 435 2386 C 381 2363 350 2316 350 2258 C 350 2174 389 2135 522 2085 C 582 2063 610 2032 617 1983 C 621 1951 618 1938 597 1914 C 575 1889 565 1885 522 1885 C 457 1885 424 1909 386 1983 C 348 2059 330 2058 330 1981 C 330 1949 333 1908 336 1891 C 343 1859 364 1849 374 1875 C 378 1887 385 1887 422 1870 C 545 1814 690 1888 690 2007 C 690 2089 658 2123 531 2174 C 443 2210 420 2233 420 2286 C 420 2320 425 2333 448 2350 C 508 2398 600 2348 629 2250 C 636 2227 647 2210 655 2210 C 667 2210 670 2228 670 2300 C 670 2391 662 2408 633 2379 C 624 2370 611 2371 580 2384 C 532 2403 476 2404 435 2386 z" stroke-linecap="round" />
</g>
		<g transform="matrix(0.13 0 0 -0.13 42.61 2.5)"  >
<path style="stroke: none; stroke-width: 1; stroke-dasharray: none; stroke-linecap: butt; stroke-dashoffset: 0; stroke-linejoin: miter; stroke-miterlimit: 4; fill: rgb(0,0,0); fill-rule: nonzero; opacity: 1;" vector-effect="non-scaling-stroke"  transform=" translate(-2560.71, -2125)" d="M 2280 2376 C 2280 2368 2291 2359 2305 2356 C 2319 2352 2339 2341 2350 2330 C 2368 2312 2370 2296 2370 2124 C 2370 2021 2366 1930 2360 1920 C 2355 1910 2337 1899 2320 1895 C 2304 1891 2290 1882 2290 1874 C 2290 1863 2311 1860 2395 1860 C 2477 1860 2500 1863 2500 1874 C 2500 1881 2485 1891 2468 1896 C 2416 1911 2409 1937 2412 2120 L 2415 2280 L 2570 2070 C 2671 1933 2730 1860 2742 1860 C 2759 1860 2760 1876 2761 2083 C 2761 2205 2765 2314 2769 2324 C 2773 2335 2791 2349 2808 2354 C 2869 2375 2847 2385 2738 2388 C 2650 2390 2630 2388 2630 2377 C 2630 2369 2643 2360 2659 2357 C 2717 2345 2720 2334 2720 2157 C 2719 2028 2717 1998 2707 2011 C 2700 2019 2635 2108 2562 2208 L 2428 2390 L 2354 2390 C 2297 2390 2280 2387 2280 2376 z" stroke-linecap="round" />
</g>
		<g transform="matrix(0.13 0 0 -0.13 -114.68 12.96)"  >
<path style="stroke: none; stroke-width: 1; stroke-dasharray: none; stroke-linecap: butt; stroke-dashoffset: 0; stroke-linejoin: miter; stroke-miterlimit: 4; fill: rgb(0,0,0); fill-rule: nonzero; opacity: 1;" vector-effect="non-scaling-stroke"  transform=" translate(-1381, -2046.53)" d="M 1295 2221 C 1246 2199 1227 2178 1232 2149 C 1240 2094 1304 2101 1306 2157 C 1307 2198 1317 2210 1351 2210 C 1392 2210 1420 2179 1420 2131 C 1420 2092 1420 2092 1358 2071 C 1239 2031 1202 1993 1215 1923 C 1227 1857 1328 1832 1392 1880 C 1420 1901 1424 1901 1432 1886 C 1445 1862 1484 1849 1520 1856 C 1553 1863 1561 1890 1530 1890 C 1498 1890 1490 1922 1490 2052 C 1490 2193 1482 2213 1422 2230 C 1370 2244 1341 2242 1295 2221 z M 1420 1996 C 1420 1940 1417 1929 1398 1916 C 1371 1897 1319 1895 1302 1912 C 1286 1928 1287 1980 1304 2002 C 1316 2018 1394 2059 1413 2060 C 1417 2060 1420 2031 1420 1996 z" stroke-linecap="round" />
</g>
		<g transform="matrix(0.13 0 0 -0.13 -66.82 12.5)"  >
<path style="stroke: none; stroke-width: 1; stroke-dasharray: none; stroke-linecap: butt; stroke-dashoffset: 0; stroke-linejoin: miter; stroke-miterlimit: 4; fill: rgb(0,0,0); fill-rule: nonzero; opacity: 1;" vector-effect="non-scaling-stroke"  transform=" translate(-1740, -2050)" d="M 1785 2228 C 1774 2222 1755 2208 1743 2197 L 1720 2177 L 1720 2203 C 1720 2228 1717 2230 1683 2230 C 1638 2230 1600 2221 1600 2210 C 1600 2206 1611 2198 1625 2192 L 1651 2180 L 1648 2038 C 1645 1898 1644 1895 1623 1892 C 1610 1890 1600 1882 1600 1874 C 1600 1863 1619 1860 1695 1860 C 1773 1860 1790 1863 1790 1875 C 1790 1884 1781 1890 1766 1890 C 1725 1890 1719 1909 1722 2036 L 1725 2154 L 1760 2178 L 1795 2202 L 1798 2178 C 1809 2109 1880 2118 1880 2189 C 1880 2210 1845 2240 1820 2240 C 1812 2240 1796 2234 1785 2228 z" stroke-linecap="round" />
</g>
		<g transform="matrix(0.13 0 0 -0.13 -21.29 13.44)"  >
<path style="stroke: none; stroke-width: 1; stroke-dasharray: none; stroke-linecap: butt; stroke-dashoffset: 0; stroke-linejoin: miter; stroke-miterlimit: 4; fill: rgb(0,0,0); fill-rule: nonzero; opacity: 1;" vector-effect="non-scaling-stroke"  transform=" translate(-2081.49, -2042.91)" d="M 2042 2233 C 2007 2226 1943 2157 1931 2113 C 1892 1975 1971 1850 2097 1850 C 2144 1850 2197 1876 2224 1913 C 2251 1950 2232 1973 2204 1937 C 2131 1845 2011 1893 1998 2020 L 1995 2055 L 2119 2058 L 2242 2061 L 2236 2101 C 2228 2154 2206 2196 2177 2215 C 2152 2231 2079 2241 2042 2233 z M 2135 2185 C 2152 2169 2160 2150 2160 2125 L 2160 2090 L 2079 2090 L 1997 2090 L 2003 2128 C 2010 2171 2049 2210 2086 2210 C 2100 2210 2122 2199 2135 2185 z" stroke-linecap="round" />
</g>
		<g transform="matrix(0.13 0 0 -0.13 109.88 13.3)"  >
<path style="stroke: none; stroke-width: 1; stroke-dasharray: none; stroke-linecap: butt; stroke-dashoffset: 0; stroke-linejoin: miter; stroke-miterlimit: 4; fill: rgb(0,0,0); fill-rule: nonzero; opacity: 1;" vector-effect="non-scaling-stroke"  transform=" translate(-3065.23, -2044)" d="M 2994 2221 C 2934 2194 2898 2141 2892 2075 C 2886 1998 2897 1955 2933 1913 C 3048 1783 3240 1865 3240 2044 C 3240 2112 3228 2146 3187 2188 C 3136 2241 3064 2253 2994 2221 z M 3123 2184 C 3159 2149 3175 2069 3161 1994 C 3146 1912 3118 1880 3063 1880 C 2976 1880 2932 2041 2986 2156 C 3013 2213 3080 2227 3123 2184 z" stroke-linecap="round" />
</g>
		<g transform="matrix(0.13 0 0 -0.13 222.77 13.35)"  >
<path style="stroke: none; stroke-width: 1; stroke-dasharray: none; stroke-linecap: butt; stroke-dashoffset: 0; stroke-linejoin: miter; stroke-miterlimit: 4; fill: rgb(0,0,0); fill-rule: nonzero; opacity: 1;" vector-effect="non-scaling-stroke"  transform=" translate(-3911.9, -2043.61)" d="M 3872 2233 C 3834 2225 3772 2156 3759 2108 C 3744 2052 3753 1979 3781 1930 C 3835 1833 3987 1824 4053 1913 C 4086 1956 4063 1965 4019 1925 C 3938 1852 3840 1900 3828 2020 L 3825 2055 L 3949 2058 L 4072 2061 L 4066 2101 C 4058 2154 4036 2196 4007 2215 C 3982 2231 3909 2241 3872 2233 z M 3960 2192 C 3973 2181 3983 2159 3987 2132 L 3993 2090 L 3907 2090 L 3822 2090 L 3831 2128 C 3846 2197 3913 2230 3960 2192 z" stroke-linecap="round" />
</g>
		<g transform="matrix(0.13 0 0 -0.13 269.94 13.12)"  >
<path style="stroke: none; stroke-width: 1; stroke-dasharray: none; stroke-linecap: butt; stroke-dashoffset: 0; stroke-linejoin: miter; stroke-miterlimit: 4; fill: rgb(0,0,0); fill-rule: nonzero; opacity: 1;" vector-effect="non-scaling-stroke"  transform=" translate(-4265.7, -2045.31)" d="M 4204 2226 C 4162 2207 4140 2174 4140 2127 C 4140 2078 4179 2039 4245 2020 C 4307 2003 4340 1975 4340 1941 C 4340 1853 4209 1863 4166 1955 C 4157 1974 4145 1990 4140 1990 C 4134 1990 4130 1961 4130 1925 C 4130 1876 4133 1860 4144 1860 C 4152 1860 4160 1865 4162 1871 C 4165 1879 4177 1877 4200 1865 C 4224 1853 4248 1849 4284 1853 C 4325 1857 4339 1863 4367 1894 C 4434 1967 4402 2036 4281 2084 C 4191 2119 4170 2150 4210 2190 C 4240 2220 4286 2216 4321 2181 C 4337 2165 4350 2144 4350 2136 C 4350 2127 4357 2120 4365 2120 C 4376 2120 4380 2133 4380 2174 C 4380 2229 4367 2251 4348 2232 C 4342 2226 4327 2225 4307 2231 C 4264 2243 4241 2242 4204 2226 z" stroke-linecap="round" />
</g>
		<g transform="matrix(0.13 0 0 -0.13 -275.38 13.16)"  >
<path style="stroke: none; stroke-width: 1; stroke-dasharray: none; stroke-linecap: butt; stroke-dashoffset: 0; stroke-linejoin: miter; stroke-miterlimit: 4; fill: rgb(0,0,0); fill-rule: nonzero; opacity: 1;" vector-effect="non-scaling-stroke"  transform=" translate(-175.77, -2045)" d="M 103 2223 C 71 2217 74 2204 110 2191 L 141 2181 L 138 2038 C 135 1898 134 1895 113 1892 C 100 1890 90 1882 90 1874 C 90 1863 109 1860 180 1860 C 270 1860 295 1871 246 1889 C 233 1894 220 1906 216 1915 C 213 1924 210 1999 210 2081 L 210 2230 L 168 2229 C 144 2228 115 2225 103 2223 z" stroke-linecap="round" />
</g>
</g>
</g>
</svg>